<svg width="64" height="64" viewBox="0 0 64 64" fill="none" xmlns="http://www.w3.org/2000/svg">
<g filter="url(#filter0_i_301_4821)">
<path d="M31.3643 19.246V30.087H9.95791C8.87714 30.087 8 30.9439 8 31.9997C8 33.0555 8.87714 33.9124 9.95791 33.9124H31.3643V44.7534C31.3643 45.4497 31.7507 46.0923 32.3772 46.4289C33.0011 46.7656 33.7634 46.7426 34.3638 46.3728L55.0837 33.6191C55.6554 33.2672 56 32.6577 56 31.9997C56 31.3417 55.6554 30.7322 55.0837 30.3803L42.1902 22.4465C41.2792 21.8829 40.0679 22.1507 39.4909 23.0433C38.9166 23.9384 39.1907 25.1192 40.107 25.6828L50.3665 31.9997L35.2801 41.2902V19.246C35.2801 18.1902 34.403 17.3333 33.3222 17.3333C32.2415 17.3333 31.3643 18.1902 31.3643 19.246Z" fill="url(#paint0_linear_301_4821)"/>
</g>
<defs>
<filter id="filter0_i_301_4821" x="8" y="17.3333" width="48" height="29.3333" filterUnits="userSpaceOnUse" color-interpolation-filters="sRGB">
<feFlood flood-opacity="0" result="BackgroundImageFix"/>
<feBlend mode="normal" in="SourceGraphic" in2="BackgroundImageFix" result="shape"/>
<feColorMatrix in="SourceAlpha" type="matrix" values="0 0 0 0 0 0 0 0 0 0 0 0 0 0 0 0 0 0 127 0" result="hardAlpha"/>
<feOffset dx="-1.62" dy="1.62"/>
<feComposite in2="hardAlpha" operator="arithmetic" k2="-1" k3="1"/>
<feColorMatrix type="matrix" values="0 0 0 0 0.68 0 0 0 0 0.656 0 0 0 0 0.52 0 0 0 1 0"/>
<feBlend mode="normal" in2="shape" result="effect1_innerShadow_301_4821"/>
</filter>
<linearGradient id="paint0_linear_301_4821" x1="56" y1="46.6666" x2="43.8572" y2="6.49469" gradientUnits="userSpaceOnUse">
<stop stop-color="#ADA785"/>
<stop offset="1" stop-color="#D6D3C2"/>
</linearGradient>
</defs>
</svg>
