<svg width="64" height="64" viewBox="0 0 64 64" fill="none" xmlns="http://www.w3.org/2000/svg">
<g filter="url(#filter0_i_4_2)">
<path d="M32.6357 19.246V30.087H54.0421C55.1229 30.087 56 30.9439 56 31.9997C56 33.0555 55.1229 33.9124 54.0421 33.9124H32.6357V44.7534C32.6357 45.4497 32.2493 46.0923 31.6228 46.4289C30.9989 46.7656 30.2366 46.7426 29.6362 46.3728L8.9163 33.6191C8.34459 33.2672 8 32.6577 8 31.9997C8 31.3417 8.34459 30.7322 8.9163 30.3803L21.8098 22.4465C22.7208 21.8829 23.9321 22.1507 24.5091 23.0433C25.0834 23.9384 24.8093 25.1192 23.893 25.6828L13.6335 31.9997L28.7199 41.2902V19.246C28.7199 18.1902 29.597 17.3333 30.6778 17.3333C31.7585 17.3333 32.6357 18.1902 32.6357 19.246" fill="url(#paint0_linear_4_2)"/>
</g>
<defs>
<filter id="filter0_i_4_2" x="8" y="17.3333" width="48" height="29.3333" filterUnits="userSpaceOnUse" color-interpolation-filters="sRGB">
<feFlood flood-opacity="0" result="BackgroundImageFix"/>
<feBlend mode="normal" in="SourceGraphic" in2="BackgroundImageFix" result="shape"/>
<feColorMatrix in="SourceAlpha" type="matrix" values="0 0 0 0 0 0 0 0 0 0 0 0 0 0 0 0 0 0 127 0" result="hardAlpha"/>
<feOffset dx="-1.62" dy="1.62"/>
<feComposite in2="hardAlpha" operator="arithmetic" k2="-1" k3="1"/>
<feColorMatrix type="matrix" values="0 0 0 0 0.68 0 0 0 0 0.656 0 0 0 0 0.52 0 0 0 1 0"/>
<feBlend mode="normal" in2="shape" result="effect1_innerShadow_4_2"/>
</filter>
<linearGradient id="paint0_linear_4_2" x1="8" y1="46.6666" x2="20.1428" y2="6.49469" gradientUnits="userSpaceOnUse">
<stop stop-color="#ADA785"/>
<stop offset="1" stop-color="#D6D3C2"/>
</linearGradient>
</defs>
</svg>
