<svg width="64" height="64" viewBox="0 0 64 64" fill="none" xmlns="http://www.w3.org/2000/svg">
<g id="Discount">
<g id="Discount_2" filter="url(#filter0_i_301_4805)">
<path id="Discount_3" fill-rule="evenodd" clip-rule="evenodd" d="M10.5233 34.8656C8.94993 33.2917 8.94993 30.7309 10.5233 29.133L12.4433 27.2097C13.9633 25.6919 14.7899 23.6912 14.7899 21.5545V18.807C14.7899 16.5929 16.6033 14.779 18.8166 14.779H21.5633C23.6966 14.779 25.6966 13.9521 27.2166 12.4316L29.1366 10.5109C30.6833 8.96377 33.2166 8.9371 34.8166 10.4603C34.8296 10.472 34.8363 10.478 34.8428 10.4841C34.8496 10.4906 34.8563 10.4973 34.8699 10.5109L34.8699 10.5109C35.2166 10.831 35.6966 11.0445 36.2299 11.0445C37.3233 11.0445 38.2299 10.1642 38.2299 9.0438C38.2299 8.51029 38.0166 8.03014 37.6699 7.65668C37.5633 7.54998 37.4566 7.46995 37.3499 7.38993C34.2033 4.53566 29.3233 4.66904 26.3099 7.68602L24.3899 9.60398C23.6433 10.3536 22.6299 10.7777 21.5633 10.7777H18.8166C14.3899 10.7777 10.7899 14.3789 10.7899 18.807V21.5545C10.7899 22.6216 10.3633 23.6352 9.6166 24.3821L7.66993 26.3294C4.54993 29.4771 4.54993 34.5748 7.6966 37.6958C8.0966 38.0933 8.60326 38.28 9.10993 38.28C9.6166 38.28 10.1499 38.0666 10.5233 37.6958C11.2966 36.8929 11.2966 35.6391 10.5233 34.8656ZM54.3861 24.3899L56.3008 26.3052C57.8181 27.8124 58.6581 29.8264 58.6661 31.9737C58.6714 34.1211 57.8421 36.1404 56.3301 37.6609L54.3834 39.6082C53.6421 40.3551 53.2154 41.3875 53.2128 42.4465V45.1861C53.2128 49.6142 49.6101 53.218 45.1834 53.218C44.0794 53.218 43.1834 52.3217 43.1834 51.2174C43.1834 50.113 44.0794 49.2167 45.1834 49.2167C47.4074 49.2167 49.2128 47.4081 49.2128 45.1861V42.4438C49.2154 40.3045 50.0448 38.2931 51.5514 36.7833L53.4714 34.86C54.2528 34.0758 54.6688 33.0621 54.6661 31.9844C54.6634 30.9094 54.2394 29.8984 53.4768 29.1382L51.5541 27.2149C50.0448 25.6944 49.2154 23.6857 49.2128 21.5517V18.8068C49.2128 16.5821 47.4074 14.7761 45.1834 14.7761C44.0794 14.7761 43.1834 13.8798 43.1834 12.7755C43.1834 11.6711 44.0794 10.7748 45.1834 10.7748C49.6101 10.7748 53.2128 14.376 53.2128 18.8068V21.549C53.2154 22.6187 53.6314 23.6297 54.3861 24.3899ZM31.9978 54.6706C33.0912 54.7133 34.0938 54.2518 34.8565 53.4809C35.6352 52.702 36.9018 52.694 37.6858 53.4729C38.4672 54.2545 38.4698 55.5216 37.6912 56.3058C36.1258 57.8797 34.0618 58.6666 31.9978 58.6666C29.9498 58.6666 27.8992 57.8903 26.3365 56.3352L24.3898 54.3879C23.6352 53.6383 22.6245 53.2195 21.5498 53.2168H18.8138C14.3872 53.2168 10.7845 49.6156 10.7845 45.1875C10.7845 44.0832 11.6805 43.1869 12.7845 43.1869C13.8885 43.1869 14.7845 44.0832 14.7845 45.1875C14.7845 47.4096 16.5898 49.2155 18.8138 49.2155H21.5552C23.6912 49.2182 25.7018 50.0504 27.2138 51.5523L29.1365 53.4782C29.9152 54.2545 30.9258 54.6706 31.9978 54.6706ZM23.7318 37.4366C22.9504 38.2182 22.9504 39.4853 23.7318 40.2668C24.1211 40.6563 24.6331 40.851 25.1451 40.851C25.6571 40.851 26.1691 40.6563 26.5611 40.2668L40.2651 26.5557C41.0464 25.7741 41.0464 24.507 40.2651 23.7255C39.4838 22.9439 38.2198 22.9439 37.4384 23.7255L23.7318 37.4366ZM25.1213 22.8672C26.3986 22.8672 27.436 23.9049 27.436 25.1826C27.436 26.4604 26.3986 27.4954 25.1213 27.4954C23.844 27.4954 22.8066 26.4604 22.8066 25.1826C22.8066 23.9049 23.844 22.8672 25.1213 22.8672ZM38.8522 36.5435C40.1296 36.5435 41.1669 37.5812 41.1669 38.859C41.1669 40.1367 40.1296 41.1744 38.8522 41.1744C37.5722 41.1744 36.5376 40.1367 36.5376 38.859C36.5376 37.5812 37.5722 36.5435 38.8522 36.5435Z" fill="url(#paint0_linear_301_4805)"/>
</g>
</g>
<defs>
<filter id="filter0_i_301_4805" x="5.33325" y="5.33331" width="53.3328" height="53.3333" filterUnits="userSpaceOnUse" color-interpolation-filters="sRGB">
<feFlood flood-opacity="0" result="BackgroundImageFix"/>
<feBlend mode="normal" in="SourceGraphic" in2="BackgroundImageFix" result="shape"/>
<feColorMatrix in="SourceAlpha" type="matrix" values="0 0 0 0 0 0 0 0 0 0 0 0 0 0 0 0 0 0 127 0" result="hardAlpha"/>
<feOffset dx="-1.62" dy="1.62"/>
<feComposite in2="hardAlpha" operator="arithmetic" k2="-1" k3="1"/>
<feColorMatrix type="matrix" values="0 0 0 0 0.68 0 0 0 0 0.656 0 0 0 0 0.52 0 0 0 1 0"/>
<feBlend mode="normal" in2="shape" result="effect1_innerShadow_301_4805"/>
</filter>
<linearGradient id="paint0_linear_301_4805" x1="5.33325" y1="58.6666" x2="69.3775" y2="26.9889" gradientUnits="userSpaceOnUse">
<stop stop-color="#ADA785"/>
<stop offset="1" stop-color="#D6D3C2"/>
</linearGradient>
</defs>
</svg>
