<svg width="64" height="64" viewBox="0 0 64 64" fill="none" xmlns="http://www.w3.org/2000/svg">
<g filter="url(#filter0_i_301_4816)">
<path d="M20.0619 11.8017C20.0619 15.0058 17.3617 17.6033 14.0309 17.6033C10.7001 17.6033 8 15.0058 8 11.8017C8 8.59749 10.7001 6 14.0309 6C17.3617 6 20.0619 8.59749 20.0619 11.8017Z" fill="url(#paint0_linear_301_4816)"/>
<path d="M8.82474 21.8678H19.134V54H8.82474V21.8678Z" fill="url(#paint1_linear_301_4816)"/>
<path d="M35.732 21.8678H25.4227V54H35.732C35.732 54 35.732 43.8843 35.732 37.5595C35.732 33.7633 36.9922 29.9504 42.0206 29.9504C47.7034 29.9504 47.6692 34.9184 47.6427 38.7672C47.608 43.7981 47.6907 48.9321 47.6907 54H58V37.0413C57.9127 26.2127 55.1694 21.2231 46.1443 21.2231C40.7847 21.2231 37.4624 23.7259 35.732 25.9903V21.8678Z" fill="url(#paint2_linear_301_4816)"/>
</g>
<defs>
<filter id="filter0_i_301_4816" x="8" y="6" width="50" height="48" filterUnits="userSpaceOnUse" color-interpolation-filters="sRGB">
<feFlood flood-opacity="0" result="BackgroundImageFix"/>
<feBlend mode="normal" in="SourceGraphic" in2="BackgroundImageFix" result="shape"/>
<feColorMatrix in="SourceAlpha" type="matrix" values="0 0 0 0 0 0 0 0 0 0 0 0 0 0 0 0 0 0 127 0" result="hardAlpha"/>
<feOffset dx="-1.62" dy="1.62"/>
<feComposite in2="hardAlpha" operator="arithmetic" k2="-1" k3="1"/>
<feColorMatrix type="matrix" values="0 0 0 0 0.68 0 0 0 0 0.656 0 0 0 0 0.52 0 0 0 1 0"/>
<feBlend mode="normal" in2="shape" result="effect1_innerShadow_301_4816"/>
</filter>
<linearGradient id="paint0_linear_301_4816" x1="8" y1="54" x2="67.0543" y2="23.5731" gradientUnits="userSpaceOnUse">
<stop stop-color="#ADA785"/>
<stop offset="1" stop-color="#D6D3C2"/>
</linearGradient>
<linearGradient id="paint1_linear_301_4816" x1="8" y1="54" x2="67.0543" y2="23.5731" gradientUnits="userSpaceOnUse">
<stop stop-color="#ADA785"/>
<stop offset="1" stop-color="#D6D3C2"/>
</linearGradient>
<linearGradient id="paint2_linear_301_4816" x1="8" y1="54" x2="67.0543" y2="23.5731" gradientUnits="userSpaceOnUse">
<stop stop-color="#ADA785"/>
<stop offset="1" stop-color="#D6D3C2"/>
</linearGradient>
</defs>
</svg>
