<svg width="60" height="54" viewBox="0 0 60 54" fill="none" xmlns="http://www.w3.org/2000/svg">
<g filter="url(#filter0_i_301_4510)">
<path fill-rule="evenodd" clip-rule="evenodd" d="M59.1668 22.0619C59.1668 23.2102 58.2428 24.1411 57.1029 24.1411L57.0771 24.0891C56.5296 24.0891 56.0047 23.8701 55.6176 23.4801C55.2305 23.0902 55.0131 22.5613 55.0131 22.0099V17.7995C54.9432 10.7237 49.2662 5.00482 42.2422 4.93441H17.7582C10.7341 5.00482 5.05716 10.7237 4.98726 17.7995V36.2005C5.05716 43.2763 10.7341 48.9952 17.7582 49.0656H42.2422C49.2662 48.9952 54.9432 43.2763 55.0131 36.2005C55.1312 35.1348 56.0255 34.3288 57.09 34.3288C58.1544 34.3288 59.0487 35.1348 59.1668 36.2005C59.1385 45.6048 51.5776 53.2215 42.2422 53.25H17.7582C8.41682 53.2357 0.847703 45.6107 0.833496 36.2005V17.7995C0.833496 8.38332 8.41093 0.75 17.7582 0.75H42.2422C51.5776 0.778541 59.1385 8.39517 59.1668 17.7995V22.0619ZM32.1551 26.5842L44.152 16.9159H44.1778C45.0711 16.2005 46.3689 16.3394 47.0932 17.2278C47.4382 17.6609 47.5969 18.215 47.5339 18.7667C47.4709 19.3184 47.1914 19.8218 46.7578 20.1646L34.7609 29.8589C31.7104 32.3318 27.3624 32.3318 24.312 29.8589L12.2893 20.1646C11.4074 19.435 11.2695 18.1277 11.9797 17.2278C12.3191 16.7965 12.8163 16.5205 13.3596 16.4619C13.9029 16.4033 14.4468 16.5668 14.8692 16.9159L26.9951 26.5842C28.5098 27.7814 30.6404 27.7814 32.1551 26.5842Z" fill="url(#paint0_linear_301_4510)"/>
</g>
<defs>
<filter id="filter0_i_301_4510" x="0.833496" y="0.75" width="58.3335" height="52.5" filterUnits="userSpaceOnUse" color-interpolation-filters="sRGB">
<feFlood flood-opacity="0" result="BackgroundImageFix"/>
<feBlend mode="normal" in="SourceGraphic" in2="BackgroundImageFix" result="shape"/>
<feColorMatrix in="SourceAlpha" type="matrix" values="0 0 0 0 0 0 0 0 0 0 0 0 0 0 0 0 0 0 127 0" result="hardAlpha"/>
<feOffset dx="-1.62" dy="1.62"/>
<feComposite in2="hardAlpha" operator="arithmetic" k2="-1" k3="1"/>
<feColorMatrix type="matrix" values="0 0 0 0 0.68 0 0 0 0 0.656 0 0 0 0 0.52 0 0 0 1 0"/>
<feBlend mode="normal" in2="shape" result="effect1_innerShadow_301_4510"/>
</filter>
<linearGradient id="paint0_linear_301_4510" x1="0.833497" y1="53.25" x2="67.7948" y2="16.4491" gradientUnits="userSpaceOnUse">
<stop stop-color="#ADA785"/>
<stop offset="1" stop-color="#D6D3C2"/>
</linearGradient>
</defs>
</svg>
