<svg width="64" height="64" viewBox="0 0 64 64" fill="none" xmlns="http://www.w3.org/2000/svg">
<g id="Scan">
<g id="Scan_2" filter="url(#filter0_i_301_4739)">
<path id="Scan_3" fill-rule="evenodd" clip-rule="evenodd" d="M11.5912 23.3654C11.5912 24.4637 10.6792 25.358 9.55921 25.358C8.43921 25.358 7.52988 24.4637 7.52988 23.3654V18.4075C7.52988 12.6755 12.2845 8.00784 18.1272 8.00261L22.4712 8H22.4739C23.5939 8 24.5032 8.8917 24.5032 9.99259C24.5032 11.0909 23.5965 11.9826 22.4739 11.9826L18.1325 11.9852C14.5245 11.9904 11.5912 14.8695 11.5912 18.4075V23.3654ZM41.6022 11.9819H45.8502C49.4688 11.9819 52.4128 14.8688 52.4128 18.4172V23.3673C52.4128 24.463 53.3222 25.3573 54.4422 25.3573C55.5622 25.3573 56.4715 24.463 56.4715 23.3673V18.4172C56.4715 12.6722 51.7088 8.00191 45.8502 8.00191H41.6022C40.4822 8.00191 39.5728 8.89099 39.5728 9.99188C39.5728 11.0902 40.4822 11.9819 41.6022 11.9819ZM59.304 32.11H4.69596C3.57863 32.11 2.66663 33.0017 2.66663 34.1025C2.66663 35.2008 3.57863 36.0925 4.69596 36.0925H7.52796V45.59C7.52796 51.3246 12.2853 55.9923 18.1306 55.9975L22.472 56.0001C23.5946 56.0001 24.5013 55.1084 24.504 54.0075C24.504 52.9093 23.5946 52.0176 22.4746 52.0176L18.1333 52.0149C14.5253 52.0097 11.5893 49.1307 11.5893 45.59V36.0925H52.4133V45.5822C52.4133 49.1333 49.4693 52.0176 45.8506 52.0176H41.6026C40.4826 52.0176 39.5733 52.9093 39.5733 54.0075C39.5733 55.1084 40.4826 56.0001 41.6026 56.0001H45.8506C51.7066 56.0001 56.472 51.3298 56.472 45.5822V36.0925H59.304C60.424 36.0925 61.3333 35.2008 61.3333 34.1025C61.3333 33.0017 60.424 32.11 59.304 32.11ZM27.0449 25.3581H36.9569C38.0795 25.3581 38.9889 24.4638 38.9889 23.3656C38.9889 22.2673 38.0795 21.3756 36.9569 21.3756H27.0449C25.9249 21.3756 25.0155 22.2673 25.0155 23.3656C25.0155 24.4638 25.9249 25.3581 27.0449 25.3581ZM27.0456 42.0638H36.9576C38.0776 42.0638 38.9869 42.9555 38.9869 44.0538C38.9869 45.1547 38.0776 46.0438 36.9576 46.0438H27.0456C25.9229 46.0438 25.0136 45.1547 25.0136 44.0538C25.0136 42.9555 25.9229 42.0638 27.0456 42.0638Z" fill="url(#paint0_linear_301_4739)"/>
</g>
</g>
<defs>
<filter id="filter0_i_301_4739" x="2.66663" y="8" width="58.6666" height="48.0001" filterUnits="userSpaceOnUse" color-interpolation-filters="sRGB">
<feFlood flood-opacity="0" result="BackgroundImageFix"/>
<feBlend mode="normal" in="SourceGraphic" in2="BackgroundImageFix" result="shape"/>
<feColorMatrix in="SourceAlpha" type="matrix" values="0 0 0 0 0 0 0 0 0 0 0 0 0 0 0 0 0 0 127 0" result="hardAlpha"/>
<feOffset dx="-1.62" dy="1.62"/>
<feComposite in2="hardAlpha" operator="arithmetic" k2="-1" k3="1"/>
<feColorMatrix type="matrix" values="0 0 0 0 0.68 0 0 0 0 0.656 0 0 0 0 0.52 0 0 0 1 0"/>
<feBlend mode="normal" in2="shape" result="effect1_innerShadow_301_4739"/>
</filter>
<linearGradient id="paint0_linear_301_4739" x1="2.66663" y1="56.0001" x2="66.8824" y2="17.179" gradientUnits="userSpaceOnUse">
<stop stop-color="#ADA785"/>
<stop offset="1" stop-color="#D6D3C2"/>
</linearGradient>
</defs>
</svg>
