<svg width="64" height="64" viewBox="0 0 64 64" fill="none" xmlns="http://www.w3.org/2000/svg">
<g id="Wallet">
<g id="Wallet_2" filter="url(#filter0_i_301_4734)">
<path id="Wallet_3" fill-rule="evenodd" clip-rule="evenodd" d="M20.7596 6.66669H43.2378C51.7451 6.66669 58.6666 13.7461 58.6666 22.4505V41.5496C58.6666 50.2539 51.7451 57.3334 43.2378 57.3334C42.2565 57.3334 41.4601 56.5185 41.4601 55.5144C41.4601 54.5103 42.2565 53.6954 43.2378 53.6954C49.7848 53.6954 55.111 48.2482 55.111 41.5496V26.3067H46.3549C43.4796 26.3091 41.1353 28.7053 41.133 31.6496C41.1353 34.5939 43.4796 36.99 46.3549 36.9925H49.9934C50.9747 36.9925 51.7712 37.8074 51.7712 38.8114C51.7712 39.8155 50.9747 40.6304 49.9934 40.6304H46.3549C41.517 40.628 37.5798 36.5996 37.5774 31.6496C37.5798 26.6996 41.517 22.6712 46.3549 22.6687H55.111V22.4505C55.111 15.7518 49.7848 10.3046 43.2378 10.3046H20.7596C15.4832 10.3046 11.0553 13.8649 9.51222 18.7422H32.9457C33.927 18.7422 34.7235 19.5571 34.7235 20.5612C34.7235 21.5676 33.927 22.3801 32.9457 22.3801H8.89592C8.89592 22.3922 8.89414 22.4038 8.89236 22.4153C8.89059 22.4268 8.88881 22.4383 8.88881 22.4505V41.5496C8.88881 48.2482 14.2127 53.6954 20.7596 53.6954H32.0687C33.05 53.6954 33.8464 54.5103 33.8464 55.5144C33.8464 56.5185 33.05 57.3334 32.0687 57.3334H20.7596C12.2524 57.3334 5.33325 50.2539 5.33325 41.5496V22.4505C5.33325 13.7461 12.2524 6.66669 20.7596 6.66669ZM44.9627 31.4856C44.9627 30.4816 45.7591 29.6667 46.7405 29.6667H47.5488C48.5301 29.6667 49.3266 30.4816 49.3266 31.4856C49.3266 32.4897 48.5301 33.3046 47.5488 33.3046H46.7405C45.7591 33.3046 44.9627 32.4897 44.9627 31.4856Z" fill="url(#paint0_linear_301_4734)"/>
</g>
</g>
<defs>
<filter id="filter0_i_301_4734" x="5.33325" y="6.66669" width="53.3333" height="50.6667" filterUnits="userSpaceOnUse" color-interpolation-filters="sRGB">
<feFlood flood-opacity="0" result="BackgroundImageFix"/>
<feBlend mode="normal" in="SourceGraphic" in2="BackgroundImageFix" result="shape"/>
<feColorMatrix in="SourceAlpha" type="matrix" values="0 0 0 0 0 0 0 0 0 0 0 0 0 0 0 0 0 0 127 0" result="hardAlpha"/>
<feOffset dx="-1.62" dy="1.62"/>
<feComposite in2="hardAlpha" operator="arithmetic" k2="-1" k3="1"/>
<feColorMatrix type="matrix" values="0 0 0 0 0.68 0 0 0 0 0.656 0 0 0 0 0.52 0 0 0 1 0"/>
<feBlend mode="normal" in2="shape" result="effect1_innerShadow_301_4734"/>
</filter>
<linearGradient id="paint0_linear_301_4734" x1="5.33325" y1="57.3334" x2="68.0461" y2="24.6813" gradientUnits="userSpaceOnUse">
<stop stop-color="#ADA785"/>
<stop offset="1" stop-color="#D6D3C2"/>
</linearGradient>
</defs>
</svg>
